<?xml version="1.0" standalone="no"?>
<!DOCTYPE svg PUBLIC "-//W3C//DTD SVG 20010904//EN"
 "http://www.w3.org/TR/2001/REC-SVG-20010904/DTD/svg10.dtd">
<svg version="1.0" xmlns="http://www.w3.org/2000/svg"
 width="1280.000000pt" height="1280.000000pt" viewBox="0 0 1280.000000 1280.000000"
 preserveAspectRatio="xMidYMid meet">
<metadata>
Created by potrace 1.16, written by Peter Selinger 2001-2019
</metadata>
<g transform="translate(0.000000,1280.000000) scale(0.100000,-0.100000)"
fill="#000000" stroke="none">
<path d="M6120 8399 c-376 -43 -664 -174 -811 -367 -141 -185 -214 -431 -226
-752 -15 -424 89 -780 285 -967 55 -54 55 -54 18 -273 -34 -202 -36 -222 -22
-249 32 -60 65 -56 216 30 69 39 193 108 275 154 150 83 150 83 220 70 195
-37 473 -45 695 -20 161 19 261 41 394 89 339 121 505 330 593 746 26 123 26
554 0 685 -64 323 -181 522 -384 655 -151 100 -379 171 -638 200 -107 12 -508
11 -615 -1z m615 -150 c352 -41 602 -158 727 -341 132 -196 198 -523 169 -846
-49 -552 -265 -791 -791 -877 -209 -34 -557 -29 -770 11 -41 8 -82 14 -91 14
-8 0 -111 -54 -228 -121 -117 -66 -215 -118 -218 -115 -3 3 7 77 22 165 15 88
24 170 21 183 -4 13 -35 46 -69 74 -113 92 -202 257 -241 445 -48 235 -48 495
0 729 77 373 282 565 694 649 231 48 523 59 775 30z"/>
<path d="M5680 7437 c-53 -27 -60 -92 -18 -187 44 -102 136 -160 253 -160 115
1 211 61 254 160 47 110 26 190 -49 190 -47 0 -66 -21 -74 -82 -12 -81 -84
-131 -164 -113 -51 11 -102 80 -102 139 0 43 -58 74 -100 53z"/>
<path d="M7133 7440 c-26 -11 -43 -40 -43 -75 0 -66 -63 -125 -133 -125 -71 0
-118 44 -132 125 -10 52 -31 75 -69 75 -53 0 -76 -24 -76 -79 0 -104 58 -198
152 -245 41 -21 66 -26 122 -26 118 0 210 58 255 160 44 101 36 169 -21 189
-17 6 -31 11 -32 10 -1 0 -11 -4 -23 -9z"/>
<path d="M7017 6879 c-134 -71 -80 -269 73 -269 120 0 190 126 124 224 -44 65
-124 83 -197 45z m155 -56 c22 -21 28 -36 28 -67 -1 -96 -111 -144 -184 -81
-51 44 -38 165 18 165 8 0 18 5 22 11 11 19 86 1 116 -28z"/>
<path d="M6250 6867 c-131 -40 -170 -76 -149 -137 20 -56 53 -62 147 -24 133
53 256 53 378 -1 31 -14 66 -25 79 -25 30 0 65 40 65 76 0 42 -33 70 -121 102
-62 22 -94 26 -199 29 -107 2 -136 0 -200 -20z"/>
<path d="M5756 5189 c-20 -16 -26 -29 -26 -59 0 -72 84 -106 135 -55 73 72
-28 178 -109 114z"/>
<path d="M6562 4834 c3 -366 3 -366 73 -366 70 0 70 0 75 168 3 105 10 177 17
190 17 29 66 48 109 41 80 -13 95 -53 93 -245 -1 -147 -1 -147 72 -150 74 -3
74 -3 72 175 -2 98 -8 195 -13 216 -15 52 -62 102 -116 123 -56 21 -145 14
-185 -15 -16 -12 -33 -21 -39 -21 -6 0 -10 45 -10 125 0 125 0 125 -75 125
-75 0 -75 0 -73 -366z"/>
<path d="M4824 5159 c-2 -3 -2 -102 -1 -220 2 -243 -3 -273 -61 -317 -30 -23
-45 -27 -98 -27 -72 0 -108 20 -136 76 -16 29 -18 65 -18 262 0 227 0 227 -81
227 -81 0 -81 0 -77 -242 4 -226 6 -247 26 -293 51 -113 141 -165 286 -165
134 0 222 44 268 133 34 68 37 88 39 334 2 236 2 236 -71 237 -39 1 -74 -2
-76 -5z"/>
<path d="M7778 5058 c-3 -63 -3 -63 -38 -68 -35 -5 -35 -5 -38 -62 -3 -58 -3
-58 38 -58 40 0 40 0 40 -143 0 -130 2 -148 23 -187 29 -54 75 -80 144 -80 49
0 133 24 133 39 0 3 -7 27 -17 53 -16 47 -16 47 -64 41 -70 -8 -80 12 -77 158
3 114 3 114 72 119 69 5 69 5 69 60 0 55 0 55 -69 60 -69 5 -69 5 -69 65 0 60
0 60 -72 63 -72 3 -72 3 -75 -60z"/>
<path d="M5331 4989 c-13 -5 -36 -18 -51 -29 -36 -26 -40 -25 -40 5 0 24 -2
25 -70 25 -70 0 -70 0 -70 -260 0 -260 0 -260 75 -260 75 0 75 0 75 165 0 165
0 165 29 197 26 29 35 33 81 33 44 0 55 -4 75 -27 29 -33 39 -113 33 -263 -4
-105 -4 -105 69 -105 73 0 73 0 73 178 0 97 -5 194 -10 214 -14 50 -55 97
-105 119 -43 20 -125 24 -164 8z"/>
<path d="M6155 4984 c-58 -21 -112 -68 -143 -128 -36 -68 -38 -189 -5 -251 84
-157 307 -199 436 -81 15 14 27 30 27 35 0 6 -19 28 -42 50 -42 39 -44 39 -63
22 -33 -31 -61 -41 -109 -41 -38 0 -53 6 -82 33 -31 28 -37 41 -42 85 -5 62 9
103 50 137 50 42 143 31 183 -23 9 -11 21 -5 60 33 50 46 50 46 8 84 -23 20
-59 43 -81 49 -52 16 -147 14 -197 -4z"/>
<path d="M7305 4986 c-50 -16 -115 -55 -115 -68 0 -6 11 -23 24 -39 13 -15 26
-34 28 -41 4 -10 17 -7 54 12 34 17 65 25 102 25 46 0 57 -4 78 -28 13 -15 24
-37 24 -48 0 -17 -7 -19 -65 -19 -167 0 -267 -60 -267 -162 0 -83 44 -134 137
-159 49 -14 123 1 167 32 25 18 32 19 39 8 5 -8 9 -17 9 -21 0 -5 30 -8 66 -8
66 0 66 0 62 188 -3 166 -6 191 -25 227 -43 82 -105 115 -210 114 -37 0 -86
-6 -108 -13z m193 -333 c2 -25 -3 -39 -23 -57 -69 -64 -191 -25 -156 50 15 33
44 44 116 41 60 -2 60 -2 63 -34z"/>
<path d="M8261 4969 c-166 -83 -202 -299 -72 -429 56 -56 119 -80 211 -80 215
0 345 222 240 407 -53 92 -127 132 -246 133 -60 0 -81 -5 -133 -31z m192 -104
c18 -8 43 -31 56 -50 20 -30 23 -44 19 -96 -4 -56 -8 -65 -41 -95 -62 -57
-132 -58 -186 -2 -72 73 -48 203 44 244 40 18 70 17 108 -1z"/>
<path d="M5740 4988 c0 -2 -2 -119 -3 -260 -2 -257 -2 -257 66 -260 38 -2 71
-1 73 1 2 2 4 121 4 263 0 258 0 258 -70 258 -38 0 -70 -1 -70 -2z"/>
</g>
</svg>
