<svg width="691" height="633" viewBox="0 0 691 633" fill="none" xmlns="http://www.w3.org/2000/svg">
<path fill-rule="evenodd" clip-rule="evenodd" d="M314.5 0.589004C279.602 2.639 264.669 4.60204 242.213 10.09C201.005 20.161 171.016 37.262 153.097 60.907C134.034 86.06 123.344 115.562 118.457 156.5C116.34 174.242 116.875 221.585 119.377 237.804C123.268 263.034 128.738 282.23 137.024 299.743C143.685 313.821 150.773 323.831 161.895 334.868L171.335 344.237L165.563 379.134C162.188 399.538 160.063 415.117 160.447 416.644C160.807 418.081 162.395 420.549 163.974 422.128C169.588 427.742 174.17 426.396 200 411.547C206.875 407.595 223.975 397.982 238 390.185L263.5 376.01L273.5 377.945C318.775 386.709 386.457 384.996 427.482 374.047C481.452 359.644 511.936 335.698 530.018 293.5C544.049 260.758 550.261 216.374 547.076 171.62C541.734 96.537 517.155 50.725 469.293 26.644C444.714 14.277 410.459 5.35601 375 2.08601C363.377 1.01401 323.895 0.0370037 314.5 0.589004ZM368.5 24.045C410.845 27.659 448.462 38.706 471.377 54.258C484.723 63.316 498.67 79.56 506.714 95.416C513.845 109.474 520.391 133.34 523.604 157C525.65 172.066 525.924 209.199 524.105 225C520.404 257.151 511.054 285.767 497.934 305.095C476.539 336.614 433.91 355.159 371.5 360.096C341.728 362.451 294.63 359.891 269.166 354.535C265.153 353.691 260.838 353 259.577 353C257.608 353 192.192 389.502 189.55 392.075C185.973 395.558 186.33 389.871 191.501 361C193.422 350.275 194.995 339.629 194.997 337.343C195 333.536 194.558 332.827 189.75 328.915C162.189 306.493 148.866 280.537 141.803 235.5C138.848 216.657 138.603 173.104 141.347 154.5C146.423 120.094 153.959 98.47 167.485 79.5C174.821 69.211 178.708 65.186 188.382 57.862C212.212 39.819 250.64 28.064 298.815 24.081C313.176 22.893 354.755 22.872 368.5 24.045ZM210.984 156.853C203.724 160.713 203.3 173.847 209.992 187.576C213.694 195.169 222.858 204.108 230.719 207.791C236.039 210.284 237.497 210.5 249.018 210.5C261.257 210.5 261.691 210.424 268.518 207.065C277.442 202.674 285.165 195.023 288.999 186.774C292.2 179.886 294.407 168.561 293.388 164.25C291.558 156.51 282.372 153.19 275.334 157.724C272.592 159.491 271.994 161.018 270.99 168.819C270.01 176.435 266.732 181.658 260.863 184.957C255.107 188.192 250.377 189.06 244.9 187.885C235.747 185.922 229.54 178.936 227.877 168.722C226.556 160.611 225.399 158.417 221.454 156.545C217.225 154.538 215.227 154.597 210.984 156.853ZM444.5 156.386C439.944 158.371 438.84 160.346 437.998 168.022C437.061 176.553 433.985 181.753 427.691 185.441C419.281 190.37 409.826 189.797 402.721 183.928C397.875 179.926 395.21 174.641 394.351 167.331C393.453 159.691 390.09 156 384.027 156C374.955 156 371.316 160.77 372.305 171.362C373.941 188.887 386.443 204.787 402.282 209.491C408.599 211.367 421.818 211.424 428.65 209.605C446.893 204.748 460 187.334 460 167.953C460 161.088 457.695 157.565 452.205 156.04C447.736 154.799 448.187 154.779 444.5 156.386ZM321.867 244.066C304.783 245.898 285.753 252.684 281.095 258.607C277.258 263.484 279.029 272.072 284.473 274.985C288.579 277.183 293.167 276.68 300.704 273.206C311.052 268.437 321.811 265.997 332.41 266.017C344.096 266.04 352.685 267.901 364.61 272.996C373.101 276.624 374.566 276.968 377.45 276.016C382.295 274.417 385.153 270.824 385.743 265.589C386.209 261.45 385.959 260.762 382.877 257.712C373.672 248.601 343.179 241.782 321.867 244.066ZM226.198 514.673C219.103 518.17 217.862 528.807 223.917 534.218C229.791 539.466 240.133 537.454 243.475 530.412C248.645 519.516 237.315 509.194 226.198 514.673ZM353.5 572.752V630.5L364.25 630.784L375 631.068L375.006 607.284C375.011 582.563 375.601 577.811 379.283 572.831C382.06 569.076 388.621 566 393.856 566C398.357 566 404.45 568.591 407.129 571.644C411.748 576.905 412 578.64 412.003 605.2L412.007 630.5L423.057 630.655L434.107 630.809L433.804 600.655C433.501 570.587 433.493 570.484 430.91 565C427.41 557.569 424.169 553.964 417.833 550.454C412.876 547.708 411.76 547.5 402 547.5C390.459 547.5 386.774 548.748 379.528 555.11L376 558.207V536.604V515L364.75 515.002L353.5 515.004V572.752ZM0.0200195 553.75C0.0310195 571.763 0.48201 589.65 1.02301 593.5C3.60101 611.856 12.405 623.283 28.506 629.172C35.703 631.804 54.605 632.847 63.105 631.081C78.537 627.874 89.771 618.002 95.157 602.917C97.363 596.738 97.461 595.099 97.798 558.75L98.148 521L86.824 520.999L75.5 520.998L75.807 550.152C76.169 584.451 75.272 594.408 71.233 600.941C66.963 607.848 60.47 611.387 51.207 611.855C41.677 612.336 36.909 610.879 31.404 605.804C27.972 602.641 26.562 600.32 25.001 595.268C23.166 589.328 23 585.971 23 554.895V521H11.5H0L0.0200195 553.75ZM548 538.5V549H542.5H537V555.918C537 559.723 536.727 563.548 536.393 564.418C535.877 565.762 536.779 566 542.393 566H549V590.184C549 617.652 549.492 619.841 557.13 626.379C562.366 630.861 568.138 632.372 577.746 631.777C585.96 631.267 595 627.848 595 625.251C595 624.508 593.763 620.983 592.25 617.418C589.903 611.887 589.207 611.029 587.5 611.572C579.663 614.066 574.672 613.15 571.973 608.723C570.195 605.807 570.007 603.62 570.004 585.75L570 566H581H592V557V548H581H570V538V528H559H548V538.5ZM162.791 547.183C156.342 548.013 150.655 550.608 145.646 555.006C143.77 556.653 141.958 558 141.618 558C141.278 558 141 555.698 141 552.883C141 548.065 140.869 547.802 138.75 548.37C137.513 548.701 132.788 548.979 128.25 548.986L120 549V589.5V630H129.418C134.598 630 139.548 630.273 140.418 630.607C141.834 631.15 142.001 628.611 142.006 606.357C142.009 592.567 142.465 579.867 143.03 577.832C143.597 575.791 145.584 572.816 147.511 571.124C157.28 562.547 173.726 566.148 176.894 577.558C177.551 579.922 177.991 591.421 177.994 606.284L178 631.068L180.75 630.616C182.263 630.368 187.243 630.127 191.817 630.082L200.134 630L199.817 600.25C199.501 570.632 199.489 570.476 196.91 565C193.423 557.595 190.156 553.947 184.024 550.61C177.992 547.327 170.748 546.158 162.791 547.183ZM296 547.109C287.802 548.444 276.898 554.181 271.931 559.772C263.028 569.795 258.766 584.066 260.936 596.587C264.257 615.747 277.818 628.856 297.584 632.013C305.425 633.266 315.227 632.121 322.153 629.143C327.213 626.968 338 618.463 338 616.649C338 615.966 334.938 612.666 331.195 609.315L324.389 603.222L322.027 605.676C316.546 611.37 306.185 614.214 298.5 612.133C281.798 607.61 276.961 583.021 290.444 571.183C295.292 566.927 298.217 565.836 305 565.753C310.998 565.68 314.979 567.287 320.241 571.906L323.508 574.775L330.726 568.685L337.944 562.595L335.611 559.569C328.187 549.943 311.274 544.623 296 547.109ZM482 546.597C471.634 548.476 463.777 551.665 457.217 556.655L453.933 559.153L458.633 565.826C461.218 569.497 463.474 572.678 463.646 572.896C463.818 573.114 465.693 572.145 467.813 570.743C481.12 561.937 497.595 563.309 502.149 573.603C505.839 581.945 505.491 582.201 490 582.532C463.567 583.097 451.985 590.061 450.298 606.402C449.287 616.198 455.405 625.562 465.949 630.359C469.41 631.933 472.537 632.429 479 632.429C488.458 632.429 493.991 630.551 501.079 624.938C505.258 621.628 505.653 621.825 506.207 627.5C506.368 629.15 507.063 630.455 507.75 630.4C508.438 630.345 512.866 630.233 517.591 630.15L526.182 630L525.74 601.25C525.463 583.188 524.861 571.133 524.122 568.823C521.188 559.649 512.003 550.52 503.177 548.006C498.962 546.806 485.712 545.924 482 546.597ZM636.51 547.175C623.457 549.664 611.282 558.9 605.905 570.39C597.747 587.823 600.469 605.253 613.479 618.892C621.714 627.526 630.383 631.292 643.258 631.827C658.971 632.481 669.113 628.756 678.546 618.867C694.694 601.937 694.918 576.424 679.065 559.662C668.5 548.492 653.18 543.996 636.51 547.175ZM221.731 589.578L221.963 630.156L232.481 630.328L243 630.5V589.75V549H232.25H221.5L221.731 589.578ZM658.14 568.005C660.142 569.337 663.279 572.624 665.113 575.31C671.068 584.038 670.21 597.843 663.193 606.182C659.987 609.993 651.714 613.979 647 613.985C638.79 613.994 630.037 608.84 626.435 601.875C619.87 589.179 624.326 573.555 636.229 567.533C643.12 564.047 652.491 564.249 658.14 568.005ZM503.393 596.582C505.343 601.662 502.829 609.561 498.218 612.845C494.322 615.619 486.255 617.458 481.716 616.607C476.455 615.62 472 611.056 472 606.655C472 598.924 479.103 595.114 493.643 595.044C501.085 595.008 502.899 595.294 503.393 596.582Z" fill="#282828"/>
<path d="M419.5 250.5C430 237 464 243 460 268C455.999 293 440 288.5 428.5 287C416.999 285.5 408.999 264 419.5 250.5Z" fill="#F6C4B9"/>
</svg>
